<?xml version="1.0" standalone="no"?>
<!DOCTYPE svg PUBLIC "-//W3C//DTD SVG 20010904//EN"
 "http://www.w3.org/TR/2001/REC-SVG-20010904/DTD/svg10.dtd">
<svg version="1.0" xmlns="http://www.w3.org/2000/svg"
 width="30px" height="30px" viewBox="0 0 128.000000 128.000000"
 preserveAspectRatio="xMidYMid meet">

<g transform="translate(0.000000,128.000000) scale(0.100000,-0.100000)"
fill="rgba(243, 243, 243, 0.954)" stroke="none">
<path d="M559 1207 c-137 -39 -237 -154 -254 -292 -12 -90 14 -161 125 -347
55 -91 100 -171 100 -177 0 -6 -9 -11 -20 -11 -32 0 -127 -36 -157 -60 -58
-45 -67 -92 -27 -140 73 -86 283 -124 468 -85 166 35 238 133 154 210 -34 32
-131 75 -168 75 -10 0 -21 4 -25 10 -3 5 40 82 95 170 56 89 106 174 111 188
82 216 -65 450 -293 467 -36 3 -82 -1 -109 -8z m218 -60 c62 -32 116 -89 144
-152 28 -62 31 -171 6 -227 -18 -42 -279 -467 -287 -468 -12 0 -265 437 -283
488 -51 152 34 318 193 376 63 23 163 15 227 -17z m-182 -854 c16 -29 36 -53
43 -53 7 0 28 25 48 56 35 55 37 56 72 49 103 -18 192 -69 192 -109 0 -27 -42
-62 -106 -87 -51 -20 -76 -23 -194 -24 -153 0 -229 18 -281 66 -36 33 -37 58
-4 89 27 26 149 71 180 67 11 -1 31 -23 50 -54z"/>
<path d="M583 980 c-61 -37 -79 -108 -43 -168 78 -127 274 -27 216 111 -28 69
-110 96 -173 57z m115 -40 c46 -43 37 -107 -19 -139 -52 -29 -119 13 -119 74
0 72 87 113 138 65z"/>
</g>
</svg>
